<svg xmlns="http://www.w3.org/2000/svg" class="css-1j8o68f" width="72.64" height="72.647" viewBox="0 0 43 105.309">
<g transform="matrix(.79189 0 0 0.79189 -18.213 11.9797)" fill="#e30047" featurekey="nRdZyp-0">
<path xmlns="http://www.w3.org/2000/svg" d="m71.7 21.7v-0.4c0-5.5-4.4-9.9-9.9-9.9-1.5 0-2.9 0.3-4.2 0.9-0.9-0.8-2-1.5-3.1-2-1-4.4-4.9-7.8-9.7-7.8-5.4 0-9.8 4.4-9.9 9.8-4.1 1.2-7.1 5-7.1 9.5v0.3c-2.9 2.1-4.8 5.4-4.8 9.2l6.1 55.6c0.1 5.9 4.1 10.7 9.1 10.7h23.5c5 0 9-4.8 9.1-10.7l6.1-55.3v-0.3c0-4.1-2.1-7.6-5.2-9.6zm-9.9-5.6c2.4 0 4.4 1.7 5 3.9-0.4 0-0.8-0.1-1.2-0.1h-8.8c0.6-2.2 2.6-3.8 5-3.8zm-7.9-0.8c-1 1.3-1.6 2.9-1.9 4.6h-6.2v-0.4c0-2.8 2.3-5.1 5.1-5.1 1.1 0 2.1 0.3 3 0.9zm-9.1-8c1.9 0 3.5 1 4.4 2.5-2.5 0.4-4.6 1.8-6.1 3.7-1-0.7-2.1-1.2-3.3-1.4 0.1-2.7 2.3-4.8 5-4.8zm-7.1 9.3c1.3 0 2.5 0.5 3.4 1.3-0.1 0.5-0.1 1.1-0.1 1.6v0.4h-6.6c-0.5 0-1 0-1.5 0.1 0.7-2 2.6-3.4 4.8-3.4zm28.4 69.8v0.3c0 3.3-2 6.1-4.3 6.1h-23.5c-2.3 0-4.3-2.8-4.3-6.1l-6.1-55.6c0.1-3.5 3-6.4 6.5-6.4h31.2c3.6 0 6.5 2.9 6.5 6.4l-6 55.3z"/>
</g>
</svg>