<?xml version="1.0" encoding="UTF-8"?>
<svg class="css-1j8o68f" width="362.05" height="72.647" viewBox="0 0 375.32 75.309" xmlns="http://www.w3.org/2000/svg">
<g transform="matrix(.79189 0 0 .79189 -18.213 -1.9797)" fill="#e30047" featurekey="nRdZyp-0">
<path d="m71.7 21.7v-0.4c0-5.5-4.4-9.9-9.9-9.9-1.5 0-2.9 0.3-4.2 0.9-0.9-0.8-2-1.5-3.1-2-1-4.4-4.9-7.8-9.7-7.8-5.4 0-9.8 4.4-9.9 9.8-4.1 1.2-7.1 5-7.1 9.5v0.3c-2.9 2.1-4.8 5.4-4.8 9.2l6.1 55.6c0.1 5.9 4.1 10.7 9.1 10.7h23.5c5 0 9-4.8 9.1-10.7l6.1-55.3v-0.3c0-4.1-2.1-7.6-5.2-9.6zm-9.9-5.6c2.4 0 4.4 1.7 5 3.9-0.4 0-0.8-0.1-1.2-0.1h-8.8c0.6-2.2 2.6-3.8 5-3.8zm-7.9-0.8c-1 1.3-1.6 2.9-1.9 4.6h-6.2v-0.4c0-2.8 2.3-5.1 5.1-5.1 1.1 0 2.1 0.3 3 0.9zm-9.1-8c1.9 0 3.5 1 4.4 2.5-2.5 0.4-4.6 1.8-6.1 3.7-1-0.7-2.1-1.2-3.3-1.4 0.1-2.7 2.3-4.8 5-4.8zm-7.1 9.3c1.3 0 2.5 0.5 3.4 1.3-0.1 0.5-0.1 1.1-0.1 1.6v0.4h-6.6c-0.5 0-1 0-1.5 0.1 0.7-2 2.6-3.4 4.8-3.4zm28.4 69.8v0.3c0 3.3-2 6.1-4.3 6.1h-23.5c-2.3 0-4.3-2.8-4.3-6.1l-6.1-55.6c0.1-3.5 3-6.4 6.5-6.4h31.2c3.6 0 6.5 2.9 6.5 6.4l-6 55.3z" xmlns="http://www.w3.org/2000/svg"/>
</g>
<g transform="matrix(2.8972 0 0 2.8972 65.74 1.5138)" fill="#fff" featurekey="Q4qmbg-0">
<path d="m6.14 8.22q-0.82 0.34-1.34 0.96-1.12 1.24-1.12 3.32t1.12 3.34q1.16 1.3 3.44 1.3 1.2 0 2.11-0.61t1.35-1.63q0.08-0.2 0.25-0.31t0.39-0.11h1.58q0.16 0 0.32 0.07t0.24 0.21q0.22 0.32 0.1 0.64-0.74 2.1-2.44 3.3-1.82 1.3-4.24 1.3-3.22 0-5.24-2.22-1.88-2.12-1.88-5.28t1.88-5.28q2.02-2.22 5.24-2.22 2.42 0 4.24 1.3 1.68 1.2 2.44 3.3 0.12 0.34-0.1 0.64-0.08 0.14-0.24 0.21t-0.32 0.07h-1.58q-0.22 0-0.39-0.11t-0.25-0.31q-0.44-1.02-1.35-1.63t-2.11-0.61q-1.28 0-2.1 0.36zm12.369-3.22q0.28 0 0.49 0.21t0.21 0.49v13.28q0 0.28-0.21 0.49t-0.49 0.21h-1.5q-0.28 0-0.49-0.21t-0.21-0.49v-13.28q0-0.28 0.21-0.49t0.49-0.21h1.5zm15.529 0q0.28 0 0.49 0.21t0.21 0.49v13.28q0 0.28-0.21 0.49t-0.49 0.21h-1.76q-0.34 0-0.56-0.28l-6.94-9.5v9.08q0 0.28-0.21 0.49t-0.49 0.21h-1.5q-0.28 0-0.49-0.21t-0.21-0.49v-13.28q0-0.28 0.21-0.49t0.49-0.21h1.74q0.16 0 0.32 0.07t0.24 0.21l6.96 9.46v-9.04q0-0.28 0.2-0.49t0.48-0.21h1.52zm13.829 0q0.3 0 0.5 0.21t0.2 0.49v1.44q0 0.28-0.2 0.49t-0.5 0.21h-7.56v3.06h6.68q0.3 0 0.5 0.21t0.2 0.49v1.46q0 0.28-0.2 0.49t-0.5 0.21h-6.68v3.08h7.56q0.3 0 0.5 0.21t0.2 0.49v1.44q0 0.28-0.2 0.49t-0.5 0.21h-9.76q-0.28 0-0.49-0.21t-0.21-0.49v-13.28q0-0.28 0.21-0.49t0.49-0.21h9.76zm9.2291 0q2.36 0 3.81 1.35t1.45 3.62-1.43 3.62-3.83 1.35h-3.78v4.04q0 0.28-0.21 0.49t-0.49 0.21h-1.5q-0.28 0-0.49-0.21t-0.21-0.49v-13.28q0-0.28 0.21-0.49t0.49-0.21h5.98zm-3.78 2.82v4.32h3.68q1.3 0 1.88-0.56t0.58-1.61-0.58-1.57q-0.62-0.58-1.88-0.58h-3.68zm21.949-2.82q0.28 0 0.48 0.21t0.2 0.49v13.28q0 0.28-0.2 0.49t-0.48 0.21h-1.52q-0.28 0-0.48-0.21t-0.2-0.49v-5.22h-6.34v5.22q0 0.28-0.21 0.49t-0.49 0.21h-1.5q-0.28 0-0.49-0.21t-0.21-0.49v-13.28q0-0.28 0.21-0.49t0.49-0.21h1.5q0.28 0 0.49 0.21t0.21 0.49v5.2h6.34v-5.2q0-0.28 0.2-0.49t0.48-0.21h1.52zm5.5491 0q0.28 0 0.49 0.21t0.21 0.49v13.28q0 0.28-0.21 0.49t-0.49 0.21h-1.5q-0.28 0-0.49-0.21t-0.21-0.49v-13.28q0-0.28 0.21-0.49t0.49-0.21h1.5zm12.809 11.84q0.3 0 0.5 0.21t0.2 0.49v1.44q0 0.28-0.2 0.49t-0.5 0.21h-8.74q-0.28 0-0.49-0.21t-0.21-0.49v-13.28q0-0.28 0.21-0.49t0.49-0.21h1.5q0.28 0 0.49 0.21t0.21 0.49v11.14h6.54zm12.529-11.84q0.3 0 0.5 0.21t0.2 0.49v1.44q0 0.28-0.2 0.49t-0.5 0.21h-7.56v3.06h6.68q0.3 0 0.5 0.21t0.2 0.49v1.46q0 0.28-0.2 0.49t-0.5 0.21h-6.68v3.08h7.56q0.3 0 0.5 0.21t0.2 0.49v1.44q0 0.28-0.2 0.49t-0.5 0.21h-9.76q-0.28 0-0.49-0.21t-0.21-0.49v-13.28q0-0.28 0.21-0.49t0.49-0.21h9.76z"/>
</g>
</svg>
